G75*
%MOIN*%
%OFA0B0*%
%FSLAX25Y25*%
%IPPOS*%
%LPD*%
%AMOC8*
5,1,8,0,0,1.08239X$1,22.5*
%
%ADD10C,0.00000*%
%ADD11C,0.00200*%
%ADD12C,0.00800*%
%ADD13C,0.00600*%
%ADD14C,0.00787*%
%ADD15C,0.00236*%
D10*
X0001000Y0001051D02*
X0001000Y0058051D01*
X0101000Y0058051D01*
X0101000Y0001051D01*
X0001000Y0001051D01*
D11*
X0012575Y0010651D02*
X0012575Y0012453D01*
X0013176Y0011852D01*
X0013776Y0012453D01*
X0013776Y0010651D01*
X0014417Y0010651D02*
X0014417Y0012453D01*
X0014417Y0011252D02*
X0015618Y0012453D01*
X0016258Y0011852D02*
X0016859Y0012453D01*
X0016859Y0010651D01*
X0017459Y0010651D02*
X0016258Y0010651D01*
X0015618Y0010651D02*
X0014717Y0011552D01*
X0023915Y0005402D02*
X0023915Y0003867D01*
X0024682Y0003100D01*
X0025450Y0003867D01*
X0025450Y0005402D01*
X0026217Y0005402D02*
X0027368Y0005402D01*
X0027752Y0005018D01*
X0027752Y0004251D01*
X0027368Y0003867D01*
X0026217Y0003867D01*
X0026217Y0003100D02*
X0026217Y0005402D01*
X0028519Y0004635D02*
X0029286Y0005402D01*
X0029286Y0003100D01*
X0028519Y0003100D02*
X0030054Y0003100D01*
X0027752Y0003100D02*
X0026984Y0003867D01*
X0054838Y0003745D02*
X0055138Y0003445D01*
X0055739Y0003445D01*
X0056039Y0003745D01*
X0056679Y0004346D02*
X0057880Y0004346D01*
X0057580Y0005246D02*
X0056679Y0004346D01*
X0056039Y0004946D02*
X0055739Y0005246D01*
X0055138Y0005246D01*
X0054838Y0004946D01*
X0054838Y0003745D01*
X0057580Y0003445D02*
X0057580Y0005246D01*
X0061209Y0006953D02*
X0062410Y0006953D01*
X0061809Y0006953D02*
X0061809Y0005151D01*
X0063051Y0005451D02*
X0063351Y0005151D01*
X0063951Y0005151D01*
X0064252Y0005451D01*
X0064252Y0006953D01*
X0064892Y0006953D02*
X0066093Y0005151D01*
X0066093Y0006953D01*
X0066734Y0006953D02*
X0066734Y0005151D01*
X0067935Y0005151D01*
X0068575Y0005151D02*
X0068575Y0006953D01*
X0069476Y0006953D01*
X0069776Y0006652D01*
X0069776Y0006052D01*
X0069476Y0005752D01*
X0068575Y0005752D01*
X0067334Y0006052D02*
X0066734Y0006052D01*
X0066734Y0006953D02*
X0067935Y0006953D01*
X0070417Y0006352D02*
X0070417Y0005151D01*
X0071618Y0005151D02*
X0071618Y0006352D01*
X0071017Y0006953D01*
X0070417Y0006352D01*
X0070417Y0006052D02*
X0071618Y0006052D01*
X0072258Y0006953D02*
X0073159Y0006953D01*
X0073459Y0006652D01*
X0073459Y0005451D01*
X0073159Y0005151D01*
X0072258Y0005151D01*
X0072258Y0006953D01*
X0078838Y0008445D02*
X0078838Y0010246D01*
X0079739Y0010246D01*
X0080039Y0009946D01*
X0080039Y0009346D01*
X0079739Y0009045D01*
X0078838Y0009045D01*
X0079438Y0009045D02*
X0080039Y0008445D01*
X0080679Y0008445D02*
X0081880Y0009646D01*
X0081880Y0009946D01*
X0081580Y0010246D01*
X0080980Y0010246D01*
X0080679Y0009946D01*
X0080679Y0008445D02*
X0081880Y0008445D01*
X0088100Y0009651D02*
X0088100Y0010852D01*
X0088701Y0011453D01*
X0089301Y0010852D01*
X0089301Y0009651D01*
X0089942Y0009651D02*
X0089942Y0011453D01*
X0091143Y0009651D01*
X0091143Y0011453D01*
X0091783Y0011453D02*
X0092984Y0011453D01*
X0092384Y0011453D02*
X0092384Y0009651D01*
X0093625Y0009651D02*
X0094826Y0009651D01*
X0094225Y0009651D02*
X0094225Y0011453D01*
X0093625Y0010852D01*
X0089301Y0010552D02*
X0088100Y0010552D01*
X0067843Y0017651D02*
X0066642Y0017651D01*
X0067843Y0018852D01*
X0067843Y0019152D01*
X0067543Y0019453D01*
X0066943Y0019453D01*
X0066642Y0019152D01*
X0066002Y0019453D02*
X0066002Y0017951D01*
X0065702Y0017651D01*
X0065101Y0017651D01*
X0064801Y0017951D01*
X0064801Y0019453D01*
X0064892Y0006953D02*
X0064892Y0005151D01*
X0063051Y0005451D02*
X0063051Y0006953D01*
X0044953Y0031913D02*
X0044352Y0031913D01*
X0044052Y0032214D01*
X0043412Y0032214D02*
X0043111Y0031913D01*
X0042511Y0031913D01*
X0042211Y0032214D01*
X0042211Y0033415D01*
X0042511Y0033715D01*
X0043111Y0033715D01*
X0043412Y0033415D01*
X0044052Y0033415D02*
X0044352Y0033715D01*
X0044953Y0033715D01*
X0045253Y0033415D01*
X0045253Y0033114D01*
X0044953Y0032814D01*
X0045253Y0032514D01*
X0045253Y0032214D01*
X0044953Y0031913D01*
X0044953Y0032814D02*
X0044653Y0032814D01*
X0051362Y0038857D02*
X0052563Y0038857D01*
X0053204Y0038857D02*
X0054405Y0038857D01*
X0053804Y0038857D02*
X0053804Y0040659D01*
X0053204Y0040059D01*
X0051362Y0040659D02*
X0051362Y0038857D01*
X0056806Y0038689D02*
X0057107Y0038389D01*
X0057707Y0038389D01*
X0058007Y0038689D01*
X0058648Y0038389D02*
X0059849Y0038389D01*
X0059248Y0038389D02*
X0059248Y0040191D01*
X0058648Y0039590D01*
X0058007Y0039890D02*
X0057707Y0040191D01*
X0057107Y0040191D01*
X0056806Y0039890D01*
X0056806Y0038689D01*
X0045253Y0041714D02*
X0044953Y0041413D01*
X0044352Y0041413D01*
X0044052Y0041714D01*
X0043412Y0041413D02*
X0042811Y0042014D01*
X0043111Y0042014D02*
X0042211Y0042014D01*
X0042211Y0041413D02*
X0042211Y0043215D01*
X0043111Y0043215D01*
X0043412Y0042915D01*
X0043412Y0042314D01*
X0043111Y0042014D01*
X0044052Y0042915D02*
X0044352Y0043215D01*
X0044953Y0043215D01*
X0045253Y0042915D01*
X0045253Y0042614D01*
X0044953Y0042314D01*
X0045253Y0042014D01*
X0045253Y0041714D01*
X0044953Y0042314D02*
X0044653Y0042314D01*
X0060600Y0052951D02*
X0060900Y0052651D01*
X0061501Y0052651D01*
X0061801Y0052951D01*
X0061801Y0054453D01*
X0062442Y0053852D02*
X0063042Y0054453D01*
X0063042Y0052651D01*
X0062442Y0052651D02*
X0063643Y0052651D01*
X0060600Y0052951D02*
X0060600Y0054453D01*
X0058509Y0053951D02*
X0058209Y0053651D01*
X0057308Y0053651D01*
X0057308Y0055453D01*
X0058209Y0055453D01*
X0058509Y0055152D01*
X0058509Y0053951D01*
X0056667Y0053651D02*
X0056667Y0054852D01*
X0056067Y0055453D01*
X0055466Y0054852D01*
X0055466Y0053651D01*
X0054826Y0054552D02*
X0054525Y0054252D01*
X0053625Y0054252D01*
X0053625Y0053651D02*
X0053625Y0055453D01*
X0054525Y0055453D01*
X0054826Y0055152D01*
X0054826Y0054552D01*
X0055466Y0054552D02*
X0056667Y0054552D01*
X0052984Y0053951D02*
X0052984Y0055152D01*
X0052684Y0055453D01*
X0051783Y0055453D01*
X0051783Y0053651D01*
X0052684Y0053651D01*
X0052984Y0053951D01*
X0051143Y0053651D02*
X0051143Y0055453D01*
X0049942Y0055453D02*
X0051143Y0053651D01*
X0049942Y0053651D02*
X0049942Y0055453D01*
X0049301Y0055152D02*
X0049001Y0055453D01*
X0048400Y0055453D01*
X0048100Y0055152D01*
X0048100Y0053951D01*
X0048400Y0053651D01*
X0049001Y0053651D01*
X0049301Y0053951D01*
X0049301Y0054552D01*
X0048701Y0054552D01*
X0036526Y0054352D02*
X0036126Y0053952D01*
X0034925Y0053952D01*
X0035725Y0053952D02*
X0036526Y0053151D01*
X0034925Y0053151D02*
X0034925Y0055553D01*
X0036126Y0055553D01*
X0036526Y0055153D01*
X0036526Y0054352D01*
X0034132Y0053151D02*
X0032531Y0053151D01*
X0032531Y0055553D01*
X0034132Y0055553D01*
X0033331Y0054352D02*
X0032531Y0054352D01*
X0031738Y0055553D02*
X0030136Y0055553D01*
X0029344Y0055553D02*
X0027742Y0055553D01*
X0026947Y0055553D02*
X0026146Y0055553D01*
X0026547Y0055553D02*
X0026547Y0053151D01*
X0026947Y0053151D02*
X0026146Y0053151D01*
X0025354Y0053151D02*
X0025354Y0055553D01*
X0024553Y0054753D01*
X0023752Y0055553D01*
X0023752Y0053151D01*
X0022960Y0053552D02*
X0022960Y0053952D01*
X0022559Y0054352D01*
X0021759Y0054352D01*
X0021358Y0054753D01*
X0021358Y0055153D01*
X0021759Y0055553D01*
X0022559Y0055553D01*
X0022960Y0055153D01*
X0020566Y0055553D02*
X0020566Y0053151D01*
X0018964Y0055553D01*
X0018964Y0053151D01*
X0018172Y0053151D02*
X0018172Y0054753D01*
X0017371Y0055553D01*
X0016570Y0054753D01*
X0016570Y0053151D01*
X0015778Y0053151D02*
X0014977Y0053952D01*
X0015377Y0053952D02*
X0015778Y0054352D01*
X0015778Y0055153D01*
X0015377Y0055553D01*
X0014176Y0055553D01*
X0014176Y0053151D01*
X0014176Y0053952D02*
X0015377Y0053952D01*
X0016570Y0054352D02*
X0018172Y0054352D01*
X0021358Y0053552D02*
X0021759Y0053151D01*
X0022559Y0053151D01*
X0022960Y0053552D01*
X0028543Y0053151D02*
X0028543Y0055553D01*
X0030937Y0055553D02*
X0030937Y0053151D01*
X0013384Y0055553D02*
X0011782Y0055553D01*
X0012583Y0055553D02*
X0012583Y0053151D01*
X0008595Y0053151D02*
X0008595Y0055553D01*
X0007795Y0054753D01*
X0006994Y0055553D01*
X0006994Y0053151D01*
X0005401Y0054352D02*
X0004600Y0054352D01*
X0004600Y0053151D02*
X0004600Y0055553D01*
X0006201Y0055553D01*
X0076600Y0055953D02*
X0076600Y0054752D01*
X0077201Y0054151D01*
X0077801Y0054752D01*
X0077801Y0055953D01*
X0078442Y0055652D02*
X0078442Y0054451D01*
X0078742Y0054151D01*
X0079342Y0054151D01*
X0079643Y0054451D01*
X0080283Y0054451D02*
X0080583Y0054151D01*
X0081184Y0054151D01*
X0081484Y0054451D01*
X0082125Y0054151D02*
X0082125Y0055953D01*
X0083025Y0055953D01*
X0083326Y0055652D01*
X0083326Y0055052D01*
X0083025Y0054752D01*
X0082125Y0054752D01*
X0081484Y0055652D02*
X0081184Y0055953D01*
X0080583Y0055953D01*
X0080283Y0055652D01*
X0080283Y0054451D01*
X0079643Y0055652D02*
X0079342Y0055953D01*
X0078742Y0055953D01*
X0078442Y0055652D01*
X0083966Y0055352D02*
X0083966Y0054151D01*
X0085167Y0054151D02*
X0085167Y0055352D01*
X0084567Y0055953D01*
X0083966Y0055352D01*
X0083966Y0055052D02*
X0085167Y0055052D01*
X0085808Y0055953D02*
X0086709Y0055953D01*
X0087009Y0055652D01*
X0087009Y0054451D01*
X0086709Y0054151D01*
X0085808Y0054151D01*
X0085808Y0055953D01*
X0090138Y0042746D02*
X0089838Y0042446D01*
X0089838Y0041245D01*
X0090138Y0040945D01*
X0090739Y0040945D01*
X0091039Y0041245D01*
X0091679Y0041245D02*
X0091980Y0040945D01*
X0092580Y0040945D01*
X0092880Y0041245D01*
X0092880Y0041846D01*
X0092580Y0042146D01*
X0092280Y0042146D01*
X0091679Y0041846D01*
X0091679Y0042746D01*
X0092880Y0042746D01*
X0091039Y0042446D02*
X0090739Y0042746D01*
X0090138Y0042746D01*
X0081880Y0040945D02*
X0080679Y0040945D01*
X0081280Y0040945D02*
X0081280Y0042746D01*
X0080679Y0042146D01*
X0080039Y0042446D02*
X0080039Y0041846D01*
X0079739Y0041545D01*
X0078838Y0041545D01*
X0078838Y0040945D02*
X0078838Y0042746D01*
X0079739Y0042746D01*
X0080039Y0042446D01*
X0079438Y0041545D02*
X0080039Y0040945D01*
D12*
X0046496Y0023606D02*
X0046496Y0018276D01*
X0046496Y0022606D02*
X0046496Y0004496D01*
X0046496Y0003496D02*
X0046496Y0008827D01*
X0040179Y0006827D02*
X0040181Y0006920D01*
X0040187Y0007012D01*
X0040197Y0007104D01*
X0040211Y0007196D01*
X0040228Y0007287D01*
X0040250Y0007377D01*
X0040275Y0007466D01*
X0040304Y0007554D01*
X0040337Y0007640D01*
X0040374Y0007725D01*
X0040414Y0007809D01*
X0040458Y0007890D01*
X0040505Y0007970D01*
X0040556Y0008048D01*
X0040609Y0008123D01*
X0040666Y0008196D01*
X0040726Y0008267D01*
X0040789Y0008335D01*
X0040855Y0008400D01*
X0040924Y0008462D01*
X0040995Y0008521D01*
X0041069Y0008577D01*
X0041144Y0008630D01*
X0041223Y0008680D01*
X0041303Y0008726D01*
X0041385Y0008769D01*
X0041469Y0008809D01*
X0041554Y0008844D01*
X0041641Y0008876D01*
X0041729Y0008904D01*
X0041819Y0008929D01*
X0041909Y0008949D01*
X0042000Y0008966D01*
X0042092Y0008979D01*
X0042184Y0008988D01*
X0042277Y0008993D01*
X0042369Y0008994D01*
X0042462Y0008991D01*
X0042554Y0008984D01*
X0042646Y0008973D01*
X0042737Y0008958D01*
X0042828Y0008940D01*
X0042918Y0008917D01*
X0043007Y0008891D01*
X0043094Y0008861D01*
X0043181Y0008827D01*
X0043265Y0008789D01*
X0043348Y0008748D01*
X0043429Y0008704D01*
X0043509Y0008656D01*
X0043586Y0008604D01*
X0043661Y0008550D01*
X0043733Y0008492D01*
X0043803Y0008431D01*
X0043870Y0008367D01*
X0043935Y0008301D01*
X0043996Y0008232D01*
X0044055Y0008160D01*
X0044110Y0008086D01*
X0044162Y0008009D01*
X0044211Y0007930D01*
X0044256Y0007850D01*
X0044298Y0007767D01*
X0044337Y0007683D01*
X0044372Y0007597D01*
X0044403Y0007510D01*
X0044430Y0007421D01*
X0044453Y0007332D01*
X0044473Y0007241D01*
X0044489Y0007150D01*
X0044501Y0007058D01*
X0044509Y0006966D01*
X0044513Y0006873D01*
X0044513Y0006781D01*
X0044509Y0006688D01*
X0044501Y0006596D01*
X0044489Y0006504D01*
X0044473Y0006413D01*
X0044453Y0006322D01*
X0044430Y0006233D01*
X0044403Y0006144D01*
X0044372Y0006057D01*
X0044337Y0005971D01*
X0044298Y0005887D01*
X0044256Y0005804D01*
X0044211Y0005724D01*
X0044162Y0005645D01*
X0044110Y0005568D01*
X0044055Y0005494D01*
X0043996Y0005422D01*
X0043935Y0005353D01*
X0043870Y0005287D01*
X0043803Y0005223D01*
X0043733Y0005162D01*
X0043661Y0005104D01*
X0043586Y0005050D01*
X0043509Y0004998D01*
X0043430Y0004950D01*
X0043348Y0004906D01*
X0043265Y0004865D01*
X0043181Y0004827D01*
X0043094Y0004793D01*
X0043007Y0004763D01*
X0042918Y0004737D01*
X0042828Y0004714D01*
X0042737Y0004696D01*
X0042646Y0004681D01*
X0042554Y0004670D01*
X0042462Y0004663D01*
X0042369Y0004660D01*
X0042277Y0004661D01*
X0042184Y0004666D01*
X0042092Y0004675D01*
X0042000Y0004688D01*
X0041909Y0004705D01*
X0041819Y0004725D01*
X0041729Y0004750D01*
X0041641Y0004778D01*
X0041554Y0004810D01*
X0041469Y0004845D01*
X0041385Y0004885D01*
X0041303Y0004928D01*
X0041223Y0004974D01*
X0041144Y0005024D01*
X0041069Y0005077D01*
X0040995Y0005133D01*
X0040924Y0005192D01*
X0040855Y0005254D01*
X0040789Y0005319D01*
X0040726Y0005387D01*
X0040666Y0005458D01*
X0040609Y0005531D01*
X0040556Y0005606D01*
X0040505Y0005684D01*
X0040458Y0005764D01*
X0040414Y0005845D01*
X0040374Y0005929D01*
X0040337Y0006014D01*
X0040304Y0006100D01*
X0040275Y0006188D01*
X0040250Y0006277D01*
X0040228Y0006367D01*
X0040211Y0006458D01*
X0040197Y0006550D01*
X0040187Y0006642D01*
X0040181Y0006734D01*
X0040179Y0006827D01*
X0041067Y0008106D02*
X0043626Y0005547D01*
X0046496Y0003496D02*
X0031602Y0003496D01*
X0031602Y0023606D01*
X0046496Y0023606D01*
X0024000Y0037551D02*
X0018000Y0039551D01*
X0016000Y0039551D02*
X0014500Y0038551D01*
X0013000Y0039551D01*
X0011000Y0039551D02*
X0005000Y0037551D01*
X0009000Y0038551D02*
X0008000Y0043551D01*
X0008000Y0047551D01*
X0010000Y0050551D01*
X0012000Y0047551D01*
X0017000Y0047551D01*
X0019000Y0050551D01*
X0021000Y0047551D01*
X0021000Y0043551D01*
X0020000Y0038551D01*
X0017000Y0036551D01*
X0012000Y0036551D01*
X0009000Y0038551D01*
X0011000Y0041051D02*
X0005000Y0042551D01*
X0011000Y0043551D02*
X0011000Y0044551D01*
X0014000Y0041551D02*
X0015000Y0041551D01*
X0018000Y0041051D02*
X0024000Y0042551D01*
X0018000Y0043551D02*
X0018000Y0044551D01*
X0003083Y0025051D02*
X0003086Y0025331D01*
X0003097Y0025611D01*
X0003114Y0025891D01*
X0003138Y0026170D01*
X0003169Y0026449D01*
X0003207Y0026726D01*
X0003251Y0027003D01*
X0003302Y0027278D01*
X0003360Y0027552D01*
X0003425Y0027825D01*
X0003497Y0028096D01*
X0003575Y0028365D01*
X0003659Y0028632D01*
X0003750Y0028897D01*
X0003848Y0029160D01*
X0003952Y0029420D01*
X0004062Y0029678D01*
X0004179Y0029932D01*
X0004302Y0030184D01*
X0004431Y0030433D01*
X0004566Y0030678D01*
X0004707Y0030921D01*
X0004854Y0031159D01*
X0005007Y0031394D01*
X0005166Y0031625D01*
X0005330Y0031852D01*
X0005499Y0032075D01*
X0005675Y0032294D01*
X0005855Y0032508D01*
X0006041Y0032718D01*
X0006231Y0032923D01*
X0006427Y0033124D01*
X0006628Y0033320D01*
X0006833Y0033510D01*
X0007043Y0033696D01*
X0007257Y0033876D01*
X0007476Y0034052D01*
X0007699Y0034221D01*
X0007926Y0034385D01*
X0008157Y0034544D01*
X0008392Y0034697D01*
X0008630Y0034844D01*
X0008873Y0034985D01*
X0009118Y0035120D01*
X0009367Y0035249D01*
X0009619Y0035372D01*
X0009873Y0035489D01*
X0010131Y0035599D01*
X0010391Y0035703D01*
X0010654Y0035801D01*
X0010919Y0035892D01*
X0011186Y0035976D01*
X0011455Y0036054D01*
X0011726Y0036126D01*
X0011999Y0036191D01*
X0012273Y0036249D01*
X0012548Y0036300D01*
X0012825Y0036344D01*
X0013102Y0036382D01*
X0013381Y0036413D01*
X0013660Y0036437D01*
X0013940Y0036454D01*
X0014220Y0036465D01*
X0014500Y0036468D01*
X0014780Y0036465D01*
X0015060Y0036454D01*
X0015340Y0036437D01*
X0015619Y0036413D01*
X0015898Y0036382D01*
X0016175Y0036344D01*
X0016452Y0036300D01*
X0016727Y0036249D01*
X0017001Y0036191D01*
X0017274Y0036126D01*
X0017545Y0036054D01*
X0017814Y0035976D01*
X0018081Y0035892D01*
X0018346Y0035801D01*
X0018609Y0035703D01*
X0018869Y0035599D01*
X0019127Y0035489D01*
X0019381Y0035372D01*
X0019633Y0035249D01*
X0019882Y0035120D01*
X0020127Y0034985D01*
X0020370Y0034844D01*
X0020608Y0034697D01*
X0020843Y0034544D01*
X0021074Y0034385D01*
X0021301Y0034221D01*
X0021524Y0034052D01*
X0021743Y0033876D01*
X0021957Y0033696D01*
X0022167Y0033510D01*
X0022372Y0033320D01*
X0022573Y0033124D01*
X0022769Y0032923D01*
X0022959Y0032718D01*
X0023145Y0032508D01*
X0023325Y0032294D01*
X0023501Y0032075D01*
X0023670Y0031852D01*
X0023834Y0031625D01*
X0023993Y0031394D01*
X0024146Y0031159D01*
X0024293Y0030921D01*
X0024434Y0030678D01*
X0024569Y0030433D01*
X0024698Y0030184D01*
X0024821Y0029932D01*
X0024938Y0029678D01*
X0025048Y0029420D01*
X0025152Y0029160D01*
X0025250Y0028897D01*
X0025341Y0028632D01*
X0025425Y0028365D01*
X0025503Y0028096D01*
X0025575Y0027825D01*
X0025640Y0027552D01*
X0025698Y0027278D01*
X0025749Y0027003D01*
X0025793Y0026726D01*
X0025831Y0026449D01*
X0025862Y0026170D01*
X0025886Y0025891D01*
X0025903Y0025611D01*
X0025914Y0025331D01*
X0025917Y0025051D01*
X0025914Y0024771D01*
X0025903Y0024491D01*
X0025886Y0024211D01*
X0025862Y0023932D01*
X0025831Y0023653D01*
X0025793Y0023376D01*
X0025749Y0023099D01*
X0025698Y0022824D01*
X0025640Y0022550D01*
X0025575Y0022277D01*
X0025503Y0022006D01*
X0025425Y0021737D01*
X0025341Y0021470D01*
X0025250Y0021205D01*
X0025152Y0020942D01*
X0025048Y0020682D01*
X0024938Y0020424D01*
X0024821Y0020170D01*
X0024698Y0019918D01*
X0024569Y0019669D01*
X0024434Y0019424D01*
X0024293Y0019181D01*
X0024146Y0018943D01*
X0023993Y0018708D01*
X0023834Y0018477D01*
X0023670Y0018250D01*
X0023501Y0018027D01*
X0023325Y0017808D01*
X0023145Y0017594D01*
X0022959Y0017384D01*
X0022769Y0017179D01*
X0022573Y0016978D01*
X0022372Y0016782D01*
X0022167Y0016592D01*
X0021957Y0016406D01*
X0021743Y0016226D01*
X0021524Y0016050D01*
X0021301Y0015881D01*
X0021074Y0015717D01*
X0020843Y0015558D01*
X0020608Y0015405D01*
X0020370Y0015258D01*
X0020127Y0015117D01*
X0019882Y0014982D01*
X0019633Y0014853D01*
X0019381Y0014730D01*
X0019127Y0014613D01*
X0018869Y0014503D01*
X0018609Y0014399D01*
X0018346Y0014301D01*
X0018081Y0014210D01*
X0017814Y0014126D01*
X0017545Y0014048D01*
X0017274Y0013976D01*
X0017001Y0013911D01*
X0016727Y0013853D01*
X0016452Y0013802D01*
X0016175Y0013758D01*
X0015898Y0013720D01*
X0015619Y0013689D01*
X0015340Y0013665D01*
X0015060Y0013648D01*
X0014780Y0013637D01*
X0014500Y0013634D01*
X0014220Y0013637D01*
X0013940Y0013648D01*
X0013660Y0013665D01*
X0013381Y0013689D01*
X0013102Y0013720D01*
X0012825Y0013758D01*
X0012548Y0013802D01*
X0012273Y0013853D01*
X0011999Y0013911D01*
X0011726Y0013976D01*
X0011455Y0014048D01*
X0011186Y0014126D01*
X0010919Y0014210D01*
X0010654Y0014301D01*
X0010391Y0014399D01*
X0010131Y0014503D01*
X0009873Y0014613D01*
X0009619Y0014730D01*
X0009367Y0014853D01*
X0009118Y0014982D01*
X0008873Y0015117D01*
X0008630Y0015258D01*
X0008392Y0015405D01*
X0008157Y0015558D01*
X0007926Y0015717D01*
X0007699Y0015881D01*
X0007476Y0016050D01*
X0007257Y0016226D01*
X0007043Y0016406D01*
X0006833Y0016592D01*
X0006628Y0016782D01*
X0006427Y0016978D01*
X0006231Y0017179D01*
X0006041Y0017384D01*
X0005855Y0017594D01*
X0005675Y0017808D01*
X0005499Y0018027D01*
X0005330Y0018250D01*
X0005166Y0018477D01*
X0005007Y0018708D01*
X0004854Y0018943D01*
X0004707Y0019181D01*
X0004566Y0019424D01*
X0004431Y0019669D01*
X0004302Y0019918D01*
X0004179Y0020170D01*
X0004062Y0020424D01*
X0003952Y0020682D01*
X0003848Y0020942D01*
X0003750Y0021205D01*
X0003659Y0021470D01*
X0003575Y0021737D01*
X0003497Y0022006D01*
X0003425Y0022277D01*
X0003360Y0022550D01*
X0003302Y0022824D01*
X0003251Y0023099D01*
X0003207Y0023376D01*
X0003169Y0023653D01*
X0003138Y0023932D01*
X0003114Y0024211D01*
X0003097Y0024491D01*
X0003086Y0024771D01*
X0003083Y0025051D01*
D13*
X0061400Y0045951D02*
X0061400Y0051151D01*
X0072600Y0051151D01*
X0072600Y0045951D01*
X0061400Y0045951D01*
X0063925Y0031654D02*
X0070075Y0031654D01*
X0070075Y0020453D02*
X0063925Y0020453D01*
D14*
X0065031Y0030579D03*
D15*
X0060504Y0034598D02*
X0060504Y0040504D01*
X0073496Y0040504D01*
X0073496Y0034598D01*
X0060504Y0034598D01*
X0055953Y0037547D02*
X0050047Y0037547D01*
X0050047Y0024555D01*
X0055953Y0024555D01*
X0055953Y0037547D01*
X0045996Y0035098D02*
X0045996Y0041004D01*
X0033004Y0041004D01*
X0033004Y0035098D01*
X0045996Y0035098D01*
X0045996Y0031504D02*
X0045996Y0025598D01*
X0033004Y0025598D01*
X0033004Y0031504D01*
X0045996Y0031504D01*
X0053047Y0019547D02*
X0058953Y0019547D01*
X0058953Y0006555D01*
X0053047Y0006555D01*
X0053047Y0019547D01*
X0077047Y0024547D02*
X0077047Y0011555D01*
X0082953Y0011555D01*
X0082953Y0024547D01*
X0077047Y0024547D01*
X0077047Y0027055D02*
X0082953Y0027055D01*
X0082953Y0040047D01*
X0077047Y0040047D01*
X0077047Y0027055D01*
X0088047Y0027055D02*
X0093953Y0027055D01*
X0093953Y0040047D01*
X0088047Y0040047D01*
X0088047Y0027055D01*
M02*
