G75*
%MOIN*%
%OFA0B0*%
%FSLAX25Y25*%
%IPPOS*%
%LPD*%
%AMOC8*
5,1,8,0,0,1.08239X$1,22.5*
%
%ADD10OC8,0.10000*%
%ADD11C,0.03937*%
%ADD12OC8,0.08500*%
%ADD13C,0.01200*%
%ADD14C,0.02900*%
D10*
X0091000Y0017551D03*
D11*
X0018437Y0021311D03*
X0018437Y0028791D03*
D12*
X0053500Y0048551D03*
X0081500Y0049051D03*
X0067500Y0012051D03*
D13*
X0003100Y0003151D02*
X0003100Y0055951D01*
X0098900Y0055951D01*
X0098900Y0003151D01*
X0003100Y0003151D01*
X0003100Y0003448D02*
X0098900Y0003448D01*
X0098900Y0004647D02*
X0003100Y0004647D01*
X0003100Y0005845D02*
X0098900Y0005845D01*
X0098900Y0007044D02*
X0070766Y0007044D01*
X0069923Y0006201D02*
X0073350Y0009628D01*
X0073350Y0014474D01*
X0069923Y0017901D01*
X0065077Y0017901D01*
X0061650Y0014474D01*
X0061650Y0009628D01*
X0065077Y0006201D01*
X0069923Y0006201D01*
X0071964Y0008242D02*
X0098900Y0008242D01*
X0098900Y0009441D02*
X0073163Y0009441D01*
X0073350Y0010639D02*
X0098900Y0010639D01*
X0098900Y0011838D02*
X0094620Y0011838D01*
X0093734Y0010951D02*
X0097600Y0014817D01*
X0097600Y0020285D01*
X0093734Y0024151D01*
X0088266Y0024151D01*
X0084400Y0020285D01*
X0084400Y0014817D01*
X0088266Y0010951D01*
X0093734Y0010951D01*
X0095819Y0013036D02*
X0098900Y0013036D01*
X0098900Y0014235D02*
X0097017Y0014235D01*
X0097600Y0015433D02*
X0098900Y0015433D01*
X0098900Y0016632D02*
X0097600Y0016632D01*
X0097600Y0017830D02*
X0098900Y0017830D01*
X0098900Y0019029D02*
X0097600Y0019029D01*
X0097600Y0020227D02*
X0098900Y0020227D01*
X0098900Y0021426D02*
X0096459Y0021426D01*
X0095261Y0022624D02*
X0098900Y0022624D01*
X0098900Y0023823D02*
X0094062Y0023823D01*
X0098900Y0025021D02*
X0003100Y0025021D01*
X0003100Y0023823D02*
X0015902Y0023823D01*
X0015665Y0023586D02*
X0016162Y0024083D01*
X0016747Y0024473D01*
X0017396Y0024742D01*
X0018086Y0024880D01*
X0018437Y0024880D01*
X0018437Y0021311D01*
X0018437Y0017743D01*
X0018437Y0021311D01*
X0018437Y0021311D01*
X0014869Y0021311D01*
X0014869Y0020960D01*
X0015006Y0020270D01*
X0015275Y0019621D01*
X0015665Y0019036D01*
X0016162Y0018539D01*
X0016747Y0018149D01*
X0017396Y0017880D01*
X0018086Y0017743D01*
X0018437Y0017743D01*
X0018788Y0017743D01*
X0019478Y0017880D01*
X0020127Y0018149D01*
X0020712Y0018539D01*
X0021209Y0019036D01*
X0021599Y0019621D01*
X0021868Y0020270D01*
X0022005Y0020960D01*
X0022005Y0021311D01*
X0022005Y0021662D01*
X0021868Y0022352D01*
X0021599Y0023001D01*
X0021209Y0023586D01*
X0020712Y0024083D01*
X0020127Y0024473D01*
X0019478Y0024742D01*
X0018788Y0024880D01*
X0018437Y0024880D01*
X0018437Y0021311D01*
X0018437Y0021311D01*
X0018437Y0021311D01*
X0022005Y0021311D01*
X0018437Y0021311D01*
X0014868Y0021311D01*
X0014869Y0021662D01*
X0015006Y0022352D01*
X0015275Y0023001D01*
X0015665Y0023586D01*
X0015119Y0022624D02*
X0003100Y0022624D01*
X0003100Y0021426D02*
X0014869Y0021426D01*
X0015023Y0020227D02*
X0003100Y0020227D01*
X0003100Y0019029D02*
X0015673Y0019029D01*
X0017644Y0017830D02*
X0003100Y0017830D01*
X0003100Y0016632D02*
X0063808Y0016632D01*
X0065006Y0017830D02*
X0019230Y0017830D01*
X0018437Y0017830D02*
X0018437Y0017830D01*
X0018437Y0019029D02*
X0018437Y0019029D01*
X0018437Y0020227D02*
X0018437Y0020227D01*
X0018437Y0021311D02*
X0018437Y0021311D01*
X0018437Y0021426D02*
X0018437Y0021426D01*
X0018437Y0022624D02*
X0018437Y0022624D01*
X0018437Y0023823D02*
X0018437Y0023823D01*
X0017727Y0025223D02*
X0019147Y0025223D01*
X0020458Y0025766D01*
X0021462Y0026770D01*
X0022005Y0028082D01*
X0022005Y0029501D01*
X0021462Y0030813D01*
X0020458Y0031817D01*
X0019147Y0032360D01*
X0017727Y0032360D01*
X0016416Y0031817D01*
X0015412Y0030813D01*
X0014869Y0029501D01*
X0014869Y0028082D01*
X0015412Y0026770D01*
X0016416Y0025766D01*
X0017727Y0025223D01*
X0015962Y0026220D02*
X0003100Y0026220D01*
X0003100Y0027418D02*
X0015143Y0027418D01*
X0014869Y0028617D02*
X0003100Y0028617D01*
X0003100Y0029815D02*
X0014999Y0029815D01*
X0015613Y0031014D02*
X0003100Y0031014D01*
X0003100Y0032212D02*
X0017371Y0032212D01*
X0019503Y0032212D02*
X0098900Y0032212D01*
X0098900Y0031014D02*
X0021261Y0031014D01*
X0021875Y0029815D02*
X0098900Y0029815D01*
X0098900Y0028617D02*
X0022005Y0028617D01*
X0021731Y0027418D02*
X0098900Y0027418D01*
X0098900Y0026220D02*
X0020912Y0026220D01*
X0020972Y0023823D02*
X0087938Y0023823D01*
X0086739Y0022624D02*
X0021756Y0022624D01*
X0022005Y0021426D02*
X0085541Y0021426D01*
X0084400Y0020227D02*
X0021851Y0020227D01*
X0021201Y0019029D02*
X0084400Y0019029D01*
X0084400Y0017830D02*
X0069994Y0017830D01*
X0071192Y0016632D02*
X0084400Y0016632D01*
X0084400Y0015433D02*
X0072391Y0015433D01*
X0073350Y0014235D02*
X0084983Y0014235D01*
X0086181Y0013036D02*
X0073350Y0013036D01*
X0073350Y0011838D02*
X0087380Y0011838D01*
X0064234Y0007044D02*
X0003100Y0007044D01*
X0003100Y0008242D02*
X0063036Y0008242D01*
X0061837Y0009441D02*
X0003100Y0009441D01*
X0003100Y0010639D02*
X0061650Y0010639D01*
X0061650Y0011838D02*
X0003100Y0011838D01*
X0003100Y0013036D02*
X0061650Y0013036D01*
X0061650Y0014235D02*
X0003100Y0014235D01*
X0003100Y0015433D02*
X0062609Y0015433D01*
X0098900Y0033411D02*
X0003100Y0033411D01*
X0003100Y0034609D02*
X0098900Y0034609D01*
X0098900Y0035808D02*
X0003100Y0035808D01*
X0003100Y0037007D02*
X0098900Y0037007D01*
X0098900Y0038205D02*
X0003100Y0038205D01*
X0003100Y0039404D02*
X0098900Y0039404D01*
X0098900Y0040602D02*
X0003100Y0040602D01*
X0003100Y0041801D02*
X0098900Y0041801D01*
X0098900Y0042999D02*
X0056221Y0042999D01*
X0055923Y0042701D02*
X0059350Y0046128D01*
X0059350Y0047951D01*
X0054100Y0047951D01*
X0054100Y0042701D01*
X0055923Y0042701D01*
X0054100Y0042999D02*
X0052900Y0042999D01*
X0052900Y0042701D02*
X0052900Y0047951D01*
X0054100Y0047951D01*
X0054100Y0049151D01*
X0059350Y0049151D01*
X0059350Y0050974D01*
X0055923Y0054401D01*
X0054100Y0054401D01*
X0054100Y0049151D01*
X0052900Y0049151D01*
X0052900Y0047951D01*
X0047650Y0047951D01*
X0047650Y0046128D01*
X0051077Y0042701D01*
X0052900Y0042701D01*
X0052900Y0044198D02*
X0054100Y0044198D01*
X0054100Y0045396D02*
X0052900Y0045396D01*
X0052900Y0046595D02*
X0054100Y0046595D01*
X0054100Y0047793D02*
X0052900Y0047793D01*
X0052900Y0048992D02*
X0003100Y0048992D01*
X0003100Y0050190D02*
X0047650Y0050190D01*
X0047650Y0050974D02*
X0047650Y0049151D01*
X0052900Y0049151D01*
X0052900Y0054401D01*
X0051077Y0054401D01*
X0047650Y0050974D01*
X0048064Y0051389D02*
X0003100Y0051389D01*
X0003100Y0052587D02*
X0049263Y0052587D01*
X0050461Y0053786D02*
X0003100Y0053786D01*
X0003100Y0054984D02*
X0098900Y0054984D01*
X0098900Y0053786D02*
X0085039Y0053786D01*
X0083923Y0054901D02*
X0079077Y0054901D01*
X0075650Y0051474D01*
X0075650Y0046628D01*
X0079077Y0043201D01*
X0083923Y0043201D01*
X0087350Y0046628D01*
X0087350Y0051474D01*
X0083923Y0054901D01*
X0086237Y0052587D02*
X0098900Y0052587D01*
X0098900Y0051389D02*
X0087350Y0051389D01*
X0087350Y0050190D02*
X0098900Y0050190D01*
X0098900Y0048992D02*
X0087350Y0048992D01*
X0087350Y0047793D02*
X0098900Y0047793D01*
X0098900Y0046595D02*
X0087317Y0046595D01*
X0086118Y0045396D02*
X0098900Y0045396D01*
X0098900Y0044198D02*
X0084920Y0044198D01*
X0078080Y0044198D02*
X0057420Y0044198D01*
X0058618Y0045396D02*
X0076882Y0045396D01*
X0075683Y0046595D02*
X0059350Y0046595D01*
X0059350Y0047793D02*
X0075650Y0047793D01*
X0075650Y0048992D02*
X0054100Y0048992D01*
X0054100Y0050190D02*
X0052900Y0050190D01*
X0052900Y0051389D02*
X0054100Y0051389D01*
X0054100Y0052587D02*
X0052900Y0052587D01*
X0052900Y0053786D02*
X0054100Y0053786D01*
X0056539Y0053786D02*
X0077961Y0053786D01*
X0076763Y0052587D02*
X0057737Y0052587D01*
X0058936Y0051389D02*
X0075650Y0051389D01*
X0075650Y0050190D02*
X0059350Y0050190D01*
X0049580Y0044198D02*
X0003100Y0044198D01*
X0003100Y0045396D02*
X0048382Y0045396D01*
X0047650Y0046595D02*
X0003100Y0046595D01*
X0003100Y0047793D02*
X0047650Y0047793D01*
X0050779Y0042999D02*
X0003100Y0042999D01*
D14*
X0025000Y0015051D03*
X0056000Y0021051D03*
X0058000Y0026051D03*
M02*
